<?xml version="1.0" encoding="iso-8859-1"?>
<!-- Uploaded to: SVG Repo, www.svgrepo.com, Generator: SVG Repo Mixer Tools -->
<svg version="1.1" id="Layer_1" xmlns="http://www.w3.org/2000/svg" xmlns:xlink="http://www.w3.org/1999/xlink" 
	 viewBox="0 0 512 512" xml:space="preserve">
<polygon style="fill:#FB0023;" points="411.826,100.174 411.826,33.391 345.043,33.391 345.043,0 166.957,0 166.957,33.391 
	100.174,33.391 100.174,100.174 66.783,100.174 66.783,278.261 100.174,278.261 100.174,478.609 100.174,512 166.957,512 
	166.957,478.609 200.348,478.609 200.348,512 233.739,512 233.739,478.609 278.261,478.609 278.261,512 311.652,512 
	311.652,478.609 345.043,478.609 345.043,512 411.826,512 411.826,478.609 411.826,278.261 445.217,278.261 445.217,100.174 "/>
<polygon style="fill:#FFDE46;" points="445.217,100.174 411.826,100.174 411.826,33.391 345.043,33.391 345.043,0 166.957,0 
	166.957,33.391 100.174,33.391 100.174,100.174 66.783,100.174 66.783,278.261 100.174,278.261 100.174,345.043 166.957,345.043 
	166.957,378.435 345.043,378.435 345.043,345.043 411.826,345.043 411.826,278.261 445.217,278.261 "/>
<polygon points="211.478,100.174 211.478,133.565 244.87,133.565 244.87,278.261 278.261,278.261 278.261,100.174 "/>
<rect x="166.957" width="178.087" height="33.391"/>
<rect x="166.957" y="345.043" width="178.087" height="33.391"/>
<polygon points="133.565,66.783 166.957,66.783 166.957,33.391 100.174,33.391 100.174,100.174 133.565,100.174 "/>
<rect x="66.783" y="100.174" width="33.391" height="178.087"/>
<polygon points="378.435,66.783 378.435,100.174 411.826,100.174 411.826,33.391 345.043,33.391 345.043,66.783 "/>
<rect x="411.826" y="100.174" width="33.391" height="178.087"/>
<polygon points="133.565,345.043 166.957,345.043 166.957,311.652 133.565,311.652 133.565,278.261 100.174,278.261 100.174,512 
	166.957,512 166.957,478.609 133.565,478.609 "/>
<polygon points="378.435,311.652 345.043,311.652 345.043,345.043 378.435,345.043 378.435,478.609 345.043,478.609 345.043,512 
	411.826,512 411.826,278.261 378.435,278.261 "/>
<rect x="166.957" y="445.217" width="33.391" height="33.391"/>
<rect x="278.261" y="478.609" width="33.391" height="33.391"/>
<rect x="200.348" y="478.609" width="33.391" height="33.391"/>
<rect x="233.739" y="445.217" width="44.522" height="33.391"/>
<rect x="311.652" y="445.217" width="33.391" height="33.391"/>
</svg>