<?xml version="1.0" encoding="iso-8859-1"?>
<!-- Uploaded to: SVG Repo, www.svgrepo.com, Generator: SVG Repo Mixer Tools -->
<svg version="1.1" id="Layer_1" xmlns="http://www.w3.org/2000/svg" xmlns:xlink="http://www.w3.org/1999/xlink" 
	 viewBox="0 0 512 512" xml:space="preserve">
<path style="fill:#84DCCF;" d="M477.225,229.126C477.225,106.946,378.18,7.901,256,7.901S34.775,106.946,34.775,229.126
	c0,110.871,81.563,202.682,187.958,218.731L256,497.758c0,0,16.68-25.019,33.267-49.901
	C395.664,431.808,477.225,339.997,477.225,229.126z"/>
<path style="fill:#027EA8;" d="M161.189,229.126c0-100.209,66.646-184.808,158.019-212.011C299.174,11.15,277.972,7.901,256,7.901
	c-122.18,0-221.225,99.046-221.225,221.225c0,110.871,81.563,202.682,187.958,218.731L256,497.758c0,0,16.68-25.019,33.267-49.901
	c10.228-1.543,20.221-3.8,29.94-6.693C227.83,413.965,161.189,329.338,161.189,229.126z"/>
<path style="fill:#F15A24;" d="M392.876,129.978c-32.398-32.398-84.925-32.398-117.322,0L256,149.532l-19.554-19.554
	c-32.398-32.398-84.925-32.398-117.322,0c-32.397,32.397-32.398,84.925,0,117.322l19.554,19.554L256,384.176l117.322-117.322
	l19.554-19.554C425.274,214.902,425.274,162.375,392.876,129.978z"/>
<path style="fill:#FBB03B;" d="M217.686,266.854L198.133,247.3c-32.398-32.398-32.398-84.925,0-117.322
	c5.81-5.81,12.284-10.535,19.157-14.26c-31.45-17.053-71.578-12.328-98.166,14.26c-32.398,32.397-32.398,84.925,0,117.322
	l19.554,19.554L256,384.176l39.505-39.505L217.686,266.854z"/>
<path d="M256,395.35L113.537,252.887c-35.426-35.427-35.426-93.07,0-128.497c35.427-35.425,93.068-35.427,128.497,0l13.967,13.967
	l13.967-13.967c35.428-35.425,93.069-35.427,128.497,0l0,0c35.426,35.427,35.426,93.07,0,128.497L256,395.35z M177.786,113.616
	c-19.224,0-38.441,7.314-53.075,21.949c-29.266,29.265-29.266,76.884,0,106.15l131.289,131.289L387.29,241.715
	c29.266-29.265,29.266-76.884,0-106.15c-29.265-29.265-76.885-29.264-106.148,0l-25.141,25.141l-25.141-25.141
	C216.228,120.933,197.003,113.616,177.786,113.616z"/>
<g>
	<path style="fill:#FFFFFF;" d="M376.596,230.061l-11.174-11.173c15.404-15.404,15.404-40.466,0-55.868l11.174-11.173
		C398.159,173.41,398.159,208.496,376.596,230.061z"/>
	
		<rect x="329.57" y="226.387" transform="matrix(-0.7071 -0.7071 0.7071 -0.7071 393.6744 679.0496)" style="fill:#FFFFFF;" width="15.805" height="63.21"/>
	
		<rect x="290.478" y="289.198" transform="matrix(-0.7071 -0.7071 0.7071 -0.7071 299.2861 718.1698)" style="fill:#FFFFFF;" width="15.805" height="15.805"/>
</g>
<path d="M256,512l-37.923-56.883c-52.309-8.724-100.207-35.582-135.188-75.888c-36.121-41.62-56.014-94.927-56.014-150.102
	c0-61.203,23.833-118.74,67.108-162.016C137.26,23.833,194.799,0,256,0s118.74,23.833,162.017,67.109
	c43.276,43.276,67.108,100.815,67.108,162.016c0,55.176-19.893,108.483-56.014,150.102c-34.983,40.309-82.876,67.166-135.189,75.888
	L256,512z M256,15.801c-117.627,0-213.325,95.697-213.325,213.324c0,51.371,18.52,101,52.146,139.745
	c33.295,38.363,79.139,63.639,129.089,71.173l3.456,0.522l28.632,42.948l28.632-42.948l3.456-0.522
	c49.95-7.533,95.794-32.81,129.089-71.173c33.626-38.745,52.146-88.374,52.146-139.745C469.325,111.498,373.627,15.801,256,15.801z"
	/>
<g>
	<rect x="247.658" y="411.407" style="fill:#FFFFFF;" width="16.692" height="15.649"/>
	<rect x="216.361" y="411.407" style="fill:#FFFFFF;" width="15.649" height="15.649"/>
	<rect x="279.999" y="411.407" style="fill:#FFFFFF;" width="15.649" height="15.649"/>
</g>
</svg>